<?xml version="1.0" encoding="utf-8"?>
<!-- Generator: Adobe Illustrator 16.0.0, SVG Export Plug-In . SVG Version: 6.00 Build 0)  -->
<!DOCTYPE svg PUBLIC "-//W3C//DTD SVG 1.1//EN" "http://www.w3.org/Graphics/SVG/1.1/DTD/svg11.dtd">
<svg version="1.1" id="Layer_1" xmlns="http://www.w3.org/2000/svg" xmlns:xlink="http://www.w3.org/1999/xlink" x="0px" y="0px"
	 width="480px" height="480px" viewBox="0 0 480 480" enable-background="new 0 0 480 480" xml:space="preserve">
<g>
	<rect fill="#0D1A21" width="480" height="480"/>
	<path fill="#FFFFFF" d="M220.582,148.479V39.839h29.26v108.64H220.582z"/>
	<path fill="#FFFFFF" d="M406.51,148.479V92.62l-23.24,38.36c-0.281,0.56-0.748,0.934-1.4,1.12c-0.654,0.188-1.215,0.28-1.68,0.28
		c-0.561,0-1.168-0.092-1.82-0.28c-0.654-0.186-1.121-0.56-1.4-1.12l-23.24-38.36v55.86h-28.42V39.839h26.6
		c0.934,0,1.727,0.42,2.381,1.26l25.76,42.98l25.9-42.98c0.652-0.84,1.4-1.26,2.24-1.26h26.74v108.64H406.51z"/>
	<path fill="#FFFFFF" d="M150.789,212.561H113.97v81.76H84.43v-81.76h-36.82L45.65,210.6v-24.92h107.1v24.92L150.789,212.561z"/>
	<path fill="#C62828" d="M235.213,297.47c-8.029,0-15.541-1.494-22.541-4.479s-13.113-7.069-18.34-12.25
		c-5.229-5.18-9.357-11.271-12.391-18.271s-4.549-14.465-4.549-22.399c0-7.932,1.516-15.4,4.549-22.4s7.162-13.09,12.391-18.27
		c5.227-5.18,11.34-9.286,18.34-12.32c7-3.032,14.512-4.55,22.541-4.55c7.932,0,15.422,1.518,22.471,4.55
		c7.045,3.034,13.182,7.14,18.408,12.32s9.357,11.27,12.391,18.27c3.031,7,4.551,14.468,4.551,22.4
		c0,7.935-1.52,15.399-4.551,22.399c-3.033,7-7.164,13.091-12.391,18.271c-5.227,5.181-11.363,9.265-18.408,12.25
		C250.635,295.976,243.145,297.47,235.213,297.47z M235.213,210.25c-4.109,0-7.91,0.818-11.41,2.45
		c-3.5,1.634-6.51,3.804-9.031,6.51c-2.52,2.708-4.504,5.858-5.949,9.45c-1.447,3.594-2.17,7.398-2.17,11.41
		c0,3.92,0.723,7.7,2.17,11.34c1.445,3.64,3.43,6.814,5.949,9.521c2.521,2.708,5.531,4.878,9.031,6.51
		c3.5,1.634,7.301,2.449,11.41,2.449c4.105,0,7.91-0.815,11.41-2.449c3.5-1.632,6.51-3.802,9.029-6.51
		c2.52-2.706,4.502-5.881,5.951-9.521c1.445-3.64,2.17-7.42,2.17-11.34c0-4.012-0.725-7.816-2.17-11.41
		c-1.449-3.592-3.432-6.742-5.951-9.45c-2.52-2.706-5.529-4.876-9.029-6.51C243.123,211.068,239.318,210.25,235.213,210.25z"/>
	<path fill="#FFFFFF" d="M406.02,294.32v-55.86l-23.24,38.36c-0.279,0.561-0.748,0.934-1.4,1.12c-0.652,0.188-1.213,0.28-1.68,0.28
		c-0.559,0-1.168-0.092-1.82-0.28c-0.652-0.187-1.119-0.56-1.398-1.12l-23.24-38.36v55.86h-28.42V185.68h26.6
		c0.932,0,1.727,0.42,2.379,1.261l25.762,42.979l25.898-42.979c0.652-0.841,1.4-1.261,2.24-1.261h26.74V294.32H406.02z"/>
	<path fill="#FFFFFF" d="M102.91,439.672c-8.027,0-15.518-1.518-22.469-4.549c-6.955-3.033-13.021-7.188-18.201-12.461
		c-5.18-5.271-9.264-11.387-12.25-18.34c-2.987-6.952-4.479-14.35-4.479-22.19c0-7.84,1.492-15.235,4.479-22.19
		c2.986-6.951,7.07-13.065,12.25-18.34c5.181-5.271,11.246-9.426,18.201-12.459c6.951-3.032,14.441-4.551,22.469-4.551
		c7.281,0,14.281,1.33,21,3.99c6.721,2.66,12.927,6.51,18.621,11.55l-22.4,19.601c-5.414-3.826-11.108-5.74-17.08-5.74
		c-3.92,0-7.561,0.748-10.92,2.24c-3.359,1.494-6.254,3.548-8.68,6.16c-2.429,2.613-4.34,5.623-5.74,9.029
		c-1.4,3.408-2.1,6.979-2.1,10.71c0,3.828,0.699,7.444,2.1,10.851c1.4,3.408,3.312,6.394,5.74,8.959
		c2.426,2.568,5.295,4.621,8.609,6.16c3.313,1.541,6.93,2.311,10.85,2.311c4.48,0,8.656-1.025,12.531-3.08
		c3.871-2.052,7.256-4.945,10.149-8.68l23.101,18.76c-5.789,7.094-12.625,12.578-20.511,16.449
		C120.293,437.734,111.871,439.672,102.91,439.672z"/>
	<path fill="#FFFFFF" d="M257.543,436.313l-5.6-14.98h-33.461l-5.6,14.98h-30.66l40.18-108.641h25.621l40.18,108.641H257.543z
		 M235.282,367.292l-8.679,28.7h17.221L235.282,367.292z"/>
	<path fill="#FFFFFF" d="M405.389,436.172l-52.658-57.96v57.96h-28.98v-108.5h28.84l52.799,58.52v-58.52h29.121v108.5H405.389z"/>
	<polygon fill="#ED1C24" points="35.01,111.78 35,111.82 35,111.79 	"/>
	<polygon fill="#ED1C24" points="35.01,111.78 35,111.82 35,111.79 	"/>
	<g>
		<path fill="#FFFFFF" d="M102.369,91.22l42.98,57.26H110.07l-29.82-36.54v36.54H50.43V39.839h29.82v36.54l29.82-36.54h36.68
			L102.369,91.22z"/>
	</g>
</g>
</svg>
